<mxfile host="app.diagrams.net" modified="2022-03-25T16:45:43.317Z" agent="5.0 (X11; Linux x86_64) AppleWebKit/537.36 (KHTML, like Gecko) Chrome/99.0.4844.74 Safari/537.36" etag="29rDIKMXwMqRljMDBt1F" version="17.2.2" type="github">
  <diagram id="1UsFOFupEMgumgfX1hPt" name="Page-1">
    <mxGraphModel dx="2204" dy="925" grid="1" gridSize="10" guides="1" tooltips="1" connect="1" arrows="1" fold="1" page="1" pageScale="1" pageWidth="850" pageHeight="1100" math="0" shadow="0">
      <root>
        <mxCell id="0" />
        <mxCell id="1" parent="0" />
        <mxCell id="kvV3nNpsvNLK5aGZ2l1V-29" value="Product Management" style="rounded=0;whiteSpace=wrap;html=1;verticalAlign=top;" parent="1" vertex="1">
          <mxGeometry x="-160" y="110" width="200" height="520" as="geometry" />
        </mxCell>
        <mxCell id="kvV3nNpsvNLK5aGZ2l1V-18" value="Production context" style="rounded=0;whiteSpace=wrap;html=1;verticalAlign=top;" parent="1" vertex="1">
          <mxGeometry x="573" y="110" width="200" height="520" as="geometry" />
        </mxCell>
        <mxCell id="kvV3nNpsvNLK5aGZ2l1V-17" value="Integration context" style="rounded=0;whiteSpace=wrap;html=1;verticalAlign=top;" parent="1" vertex="1">
          <mxGeometry x="325" y="110" width="200" height="520" as="geometry" />
        </mxCell>
        <mxCell id="kvV3nNpsvNLK5aGZ2l1V-16" value="Development context" style="rounded=0;whiteSpace=wrap;html=1;verticalAlign=top;" parent="1" vertex="1">
          <mxGeometry x="85" y="110" width="200" height="520" as="geometry" />
        </mxCell>
        <mxCell id="kvV3nNpsvNLK5aGZ2l1V-6" value="Integration testing" style="rounded=1;whiteSpace=wrap;html=1;fillColor=#FFE6CC;" parent="1" vertex="1">
          <mxGeometry x="363" y="160" width="120" height="60" as="geometry" />
        </mxCell>
        <mxCell id="kvV3nNpsvNLK5aGZ2l1V-7" value="Service monitoring" style="rounded=1;whiteSpace=wrap;html=1;fillColor=#FFE6CC;" parent="1" vertex="1">
          <mxGeometry x="363" y="230" width="120" height="60" as="geometry" />
        </mxCell>
        <mxCell id="kvV3nNpsvNLK5aGZ2l1V-8" value="infrastructure monitoring" style="rounded=1;whiteSpace=wrap;html=1;" parent="1" vertex="1">
          <mxGeometry x="114" y="560" width="610" height="60" as="geometry" />
        </mxCell>
        <mxCell id="jvE0Gw5Yp8Ub48FBHmDM-13" style="edgeStyle=orthogonalEdgeStyle;rounded=0;orthogonalLoop=1;jettySize=auto;html=1;exitX=1;exitY=0.5;exitDx=0;exitDy=0;entryX=0;entryY=0.5;entryDx=0;entryDy=0;" edge="1" parent="1" source="kvV3nNpsvNLK5aGZ2l1V-9" target="kvV3nNpsvNLK5aGZ2l1V-24">
          <mxGeometry relative="1" as="geometry">
            <Array as="points">
              <mxPoint x="613" y="370" />
            </Array>
          </mxGeometry>
        </mxCell>
        <mxCell id="kvV3nNpsvNLK5aGZ2l1V-9" value="Performance testing&lt;br&gt;&amp;amp; chaos testing" style="rounded=1;whiteSpace=wrap;html=1;fillColor=#E6FFCC;" parent="1" vertex="1">
          <mxGeometry x="363" y="340" width="120" height="60" as="geometry" />
        </mxCell>
        <mxCell id="kvV3nNpsvNLK5aGZ2l1V-10" value="service level objective management" style="rounded=1;whiteSpace=wrap;html=1;fillColor=#FFE6CC;" parent="1" vertex="1">
          <mxGeometry x="613" y="160" width="120" height="60" as="geometry" />
        </mxCell>
        <mxCell id="jvE0Gw5Yp8Ub48FBHmDM-15" style="edgeStyle=orthogonalEdgeStyle;rounded=0;orthogonalLoop=1;jettySize=auto;html=1;exitX=1;exitY=1;exitDx=0;exitDy=0;entryX=0;entryY=0.5;entryDx=0;entryDy=0;" edge="1" parent="1" source="kvV3nNpsvNLK5aGZ2l1V-12" target="kvV3nNpsvNLK5aGZ2l1V-13">
          <mxGeometry relative="1" as="geometry" />
        </mxCell>
        <mxCell id="kvV3nNpsvNLK5aGZ2l1V-12" value="Feature development testing" style="rounded=1;whiteSpace=wrap;html=1;fillColor=#FFE6CC;" parent="1" vertex="1">
          <mxGeometry x="125" y="160" width="120" height="60" as="geometry" />
        </mxCell>
        <mxCell id="jvE0Gw5Yp8Ub48FBHmDM-17" style="edgeStyle=orthogonalEdgeStyle;rounded=0;orthogonalLoop=1;jettySize=auto;html=1;exitX=1;exitY=0.5;exitDx=0;exitDy=0;entryX=0;entryY=1;entryDx=0;entryDy=0;" edge="1" parent="1" source="kvV3nNpsvNLK5aGZ2l1V-13" target="kvV3nNpsvNLK5aGZ2l1V-6">
          <mxGeometry relative="1" as="geometry" />
        </mxCell>
        <mxCell id="jvE0Gw5Yp8Ub48FBHmDM-19" style="edgeStyle=orthogonalEdgeStyle;rounded=0;orthogonalLoop=1;jettySize=auto;html=1;exitX=1;exitY=0.5;exitDx=0;exitDy=0;entryX=0;entryY=0.25;entryDx=0;entryDy=0;" edge="1" parent="1" source="kvV3nNpsvNLK5aGZ2l1V-13" target="kvV3nNpsvNLK5aGZ2l1V-7">
          <mxGeometry relative="1" as="geometry" />
        </mxCell>
        <mxCell id="kvV3nNpsvNLK5aGZ2l1V-13" value="&lt;span&gt;Continuous deployment&lt;/span&gt;" style="rhombus;whiteSpace=wrap;html=1;" parent="1" vertex="1">
          <mxGeometry x="250" y="190" width="105" height="80" as="geometry" />
        </mxCell>
        <mxCell id="kvV3nNpsvNLK5aGZ2l1V-14" value="&lt;span&gt;Continuous &lt;br&gt;Delivery&lt;/span&gt;" style="rhombus;whiteSpace=wrap;html=1;" parent="1" vertex="1">
          <mxGeometry x="493" y="190" width="107" height="80" as="geometry" />
        </mxCell>
        <mxCell id="jvE0Gw5Yp8Ub48FBHmDM-16" style="edgeStyle=orthogonalEdgeStyle;rounded=0;orthogonalLoop=1;jettySize=auto;html=1;exitX=1;exitY=0.25;exitDx=0;exitDy=0;" edge="1" parent="1" source="kvV3nNpsvNLK5aGZ2l1V-15">
          <mxGeometry relative="1" as="geometry">
            <mxPoint x="250" y="230" as="targetPoint" />
          </mxGeometry>
        </mxCell>
        <mxCell id="kvV3nNpsvNLK5aGZ2l1V-15" value="Deployment automation and testing" style="rounded=1;whiteSpace=wrap;html=1;fillColor=#FFE6CC;" parent="1" vertex="1">
          <mxGeometry x="125" y="230" width="120" height="60" as="geometry" />
        </mxCell>
        <mxCell id="jvE0Gw5Yp8Ub48FBHmDM-8" style="edgeStyle=orthogonalEdgeStyle;rounded=0;orthogonalLoop=1;jettySize=auto;html=1;exitX=1;exitY=0.5;exitDx=0;exitDy=0;entryX=0;entryY=0.5;entryDx=0;entryDy=0;" edge="1" parent="1" source="kvV3nNpsvNLK5aGZ2l1V-21" target="kvV3nNpsvNLK5aGZ2l1V-32">
          <mxGeometry relative="1" as="geometry">
            <Array as="points">
              <mxPoint x="870" y="230" />
              <mxPoint x="870" y="60" />
              <mxPoint x="-190" y="60" />
              <mxPoint x="-190" y="290" />
            </Array>
          </mxGeometry>
        </mxCell>
        <mxCell id="kvV3nNpsvNLK5aGZ2l1V-21" value="&lt;span&gt;Continous Improvement&lt;/span&gt;" style="rhombus;whiteSpace=wrap;html=1;" parent="1" vertex="1">
          <mxGeometry x="748" y="190" width="102" height="80" as="geometry" />
        </mxCell>
        <mxCell id="kvV3nNpsvNLK5aGZ2l1V-22" value="&lt;span&gt;Continous&lt;/span&gt;&lt;span style=&quot;color: rgba(0 , 0 , 0 , 0) ; font-family: monospace ; font-size: 0px&quot;&gt;%3CmxGraphModel%3E%3Croot%3E%3CmxCell%20id%3D%220%22%2F%3E%3CmxCell%20id%3D%221%22%20parent%3D%220%22%2F%3E%3CmxCell%20id%3D%222%22%20value%3D%22%26lt%3Bspan%26gt%3BContinous%20deployement%26lt%3B%2Fspan%26gt%3B%22%20style%3D%22rhombus%3BwhiteSpace%3Dwrap%3Bhtml%3D1%3B%22%20vertex%3D%221%22%20parent%3D%221%22%3E%3CmxGeometry%20x%3D%22230%22%20y%3D%22170%22%20width%3D%22105%22%20height%3D%2280%22%20as%3D%22geometry%22%2F%3E%3C%2FmxCell%3E%3C%2Froot%3E%3C%2FmxGraphModel%3E&lt;/span&gt;&lt;span&gt;&lt;br&gt;inetgration&lt;/span&gt;" style="rhombus;whiteSpace=wrap;html=1;" parent="1" vertex="1">
          <mxGeometry x="9" y="180" width="105" height="80" as="geometry" />
        </mxCell>
        <mxCell id="jvE0Gw5Yp8Ub48FBHmDM-14" style="edgeStyle=orthogonalEdgeStyle;rounded=0;orthogonalLoop=1;jettySize=auto;html=1;exitX=1;exitY=0.5;exitDx=0;exitDy=0;entryX=0;entryY=0.5;entryDx=0;entryDy=0;" edge="1" parent="1" source="jvE0Gw5Yp8Ub48FBHmDM-20" target="jvE0Gw5Yp8Ub48FBHmDM-10">
          <mxGeometry relative="1" as="geometry">
            <Array as="points">
              <mxPoint x="880" y="370" />
              <mxPoint x="880" y="20" />
              <mxPoint x="302" y="20" />
              <mxPoint x="302" y="30" />
              <mxPoint x="-200" y="30" />
              <mxPoint x="-200" y="355" />
            </Array>
          </mxGeometry>
        </mxCell>
        <mxCell id="jvE0Gw5Yp8Ub48FBHmDM-21" style="edgeStyle=orthogonalEdgeStyle;rounded=0;orthogonalLoop=1;jettySize=auto;html=1;exitX=1;exitY=0.5;exitDx=0;exitDy=0;" edge="1" parent="1" source="kvV3nNpsvNLK5aGZ2l1V-24" target="jvE0Gw5Yp8Ub48FBHmDM-20">
          <mxGeometry relative="1" as="geometry" />
        </mxCell>
        <mxCell id="kvV3nNpsvNLK5aGZ2l1V-24" value="Smoke testing" style="rounded=1;whiteSpace=wrap;html=1;fillColor=#E6FFCC;" parent="1" vertex="1">
          <mxGeometry x="613" y="340" width="120" height="60" as="geometry" />
        </mxCell>
        <mxCell id="kvV3nNpsvNLK5aGZ2l1V-25" value="Incident Management" style="rounded=1;whiteSpace=wrap;html=1;fillColor=#E6FFCC;" parent="1" vertex="1">
          <mxGeometry x="613" y="230" width="120" height="60" as="geometry" />
        </mxCell>
        <mxCell id="kvV3nNpsvNLK5aGZ2l1V-27" value="Alerting" style="rounded=1;whiteSpace=wrap;html=1;" parent="1" vertex="1">
          <mxGeometry x="114" y="490" width="610" height="60" as="geometry" />
        </mxCell>
        <mxCell id="kvV3nNpsvNLK5aGZ2l1V-30" value="Technical Dept &amp;amp; Obsolescence Management" style="rounded=1;whiteSpace=wrap;html=1;" parent="1" vertex="1">
          <mxGeometry x="-130" y="390" width="120" height="60" as="geometry" />
        </mxCell>
        <mxCell id="jvE0Gw5Yp8Ub48FBHmDM-9" style="edgeStyle=orthogonalEdgeStyle;rounded=0;orthogonalLoop=1;jettySize=auto;html=1;exitX=1;exitY=0.5;exitDx=0;exitDy=0;" edge="1" parent="1" source="kvV3nNpsvNLK5aGZ2l1V-31" target="kvV3nNpsvNLK5aGZ2l1V-22">
          <mxGeometry relative="1" as="geometry" />
        </mxCell>
        <mxCell id="kvV3nNpsvNLK5aGZ2l1V-31" value="Feature lifecycle management" style="rounded=1;whiteSpace=wrap;html=1;" parent="1" vertex="1">
          <mxGeometry x="-130" y="190" width="120" height="60" as="geometry" />
        </mxCell>
        <mxCell id="jvE0Gw5Yp8Ub48FBHmDM-11" style="edgeStyle=orthogonalEdgeStyle;rounded=0;orthogonalLoop=1;jettySize=auto;html=1;exitX=1;exitY=0.5;exitDx=0;exitDy=0;entryX=0;entryY=0.5;entryDx=0;entryDy=0;" edge="1" parent="1" source="kvV3nNpsvNLK5aGZ2l1V-32" target="kvV3nNpsvNLK5aGZ2l1V-9">
          <mxGeometry relative="1" as="geometry">
            <Array as="points">
              <mxPoint x="-10" y="300" />
              <mxPoint x="177" y="300" />
              <mxPoint x="177" y="370" />
            </Array>
          </mxGeometry>
        </mxCell>
        <mxCell id="kvV3nNpsvNLK5aGZ2l1V-32" value="Service level management" style="rounded=1;whiteSpace=wrap;html=1;" parent="1" vertex="1">
          <mxGeometry x="-130" y="260" width="120" height="60" as="geometry" />
        </mxCell>
        <mxCell id="jvE0Gw5Yp8Ub48FBHmDM-6" value="Cost estimation" style="rounded=1;whiteSpace=wrap;html=1;fillColor=#E6FFCC;" vertex="1" parent="1">
          <mxGeometry x="125" y="380" width="120" height="60" as="geometry" />
        </mxCell>
        <mxCell id="jvE0Gw5Yp8Ub48FBHmDM-7" value="Service cost management" style="rounded=1;whiteSpace=wrap;html=1;" vertex="1" parent="1">
          <mxGeometry x="-130" y="460" width="120" height="60" as="geometry" />
        </mxCell>
        <mxCell id="jvE0Gw5Yp8Ub48FBHmDM-22" style="edgeStyle=orthogonalEdgeStyle;rounded=0;orthogonalLoop=1;jettySize=auto;html=1;exitX=1;exitY=0.5;exitDx=0;exitDy=0;entryX=0;entryY=0.5;entryDx=0;entryDy=0;" edge="1" parent="1" source="jvE0Gw5Yp8Ub48FBHmDM-10" target="jvE0Gw5Yp8Ub48FBHmDM-6">
          <mxGeometry relative="1" as="geometry" />
        </mxCell>
        <mxCell id="jvE0Gw5Yp8Ub48FBHmDM-10" value="Growth management" style="rounded=1;whiteSpace=wrap;html=1;" vertex="1" parent="1">
          <mxGeometry x="-130" y="325" width="120" height="60" as="geometry" />
        </mxCell>
        <mxCell id="jvE0Gw5Yp8Ub48FBHmDM-20" value="&lt;span&gt;Resilience&lt;/span&gt;" style="rhombus;whiteSpace=wrap;html=1;" vertex="1" parent="1">
          <mxGeometry x="748" y="330" width="102" height="80" as="geometry" />
        </mxCell>
      </root>
    </mxGraphModel>
  </diagram>
</mxfile>
